<svg width="133" height="60" viewBox="0 0 133 60" fill="none" xmlns="http://www.w3.org/2000/svg">
<rect width="132.5" height="60" rx="6" fill="white"/>
<g clip-path="url(#clip0_2025_508)">
<path d="M16.9541 15L15 20.1969H16.2727L16.6352 19.1557H18.731L19.088 20.1969H20.388L18.4339 15H16.9541ZM17.6763 16.2096L18.3167 18.0302H17.0358L17.6763 16.2096Z" fill="#016FD0"/>
<path d="M20.5215 20.1969V15H22.3284L23.3804 18.3513L24.4079 15H26.2012V20.1969H25.0647V16.3686L23.8601 20.1969H22.8653L21.658 16.3686V20.1969H20.5215Z" fill="#016FD0"/>
<path d="M26.9915 20.1969V15H30.698V16.1628H28.1253V17.0513H30.6244V18.1456H28.1253V19.0808H30.6844V20.2094L26.9915 20.1969Z" fill="#016FD0"/>
<path d="M31.3521 15V20.1969H32.4885V18.3513H32.9655L34.3281 20.1969H35.7126L34.2191 18.2828C34.5638 18.2437 34.8832 18.058 35.1138 17.7624C35.3445 17.4667 35.4697 17.0828 35.4646 16.6866C35.4564 15.5923 34.7069 15 33.8675 15H31.3521ZM32.4885 16.1628H33.7858C33.921 16.1559 34.0534 16.2091 34.155 16.3114C34.2567 16.4138 34.3197 16.5572 34.3308 16.7115C34.3217 16.8626 34.2619 17.0037 34.1639 17.1054C34.0658 17.2071 33.9372 17.2615 33.8049 17.2571H32.4776V16.1628H32.4885Z" fill="#016FD0"/>
<path d="M37.0752 20.1969H35.9197V15H37.0752V20.1969Z" fill="#016FD0"/>
<path d="M39.8306 20.1969H39.5798C38.3671 20.1969 37.6312 19.1058 37.6312 17.6187C37.6312 16.1317 38.3589 15 39.8878 15H41.1442V16.247H39.8442C39.2228 16.247 38.784 16.8019 38.784 17.6468C38.784 18.6537 39.2855 19.0777 40.0077 19.0777H40.3075L39.8306 20.1969Z" fill="#016FD0"/>
<path d="M42.2997 15L40.3456 20.1969H41.6184L41.9808 19.1557H44.0766L44.4337 20.1969H45.7336L43.7823 15H42.2997ZM43.0247 16.2096L43.6624 18.0302H42.3815L43.0247 16.2096Z" fill="#016FD0"/>
<path d="M45.8672 20.1969V15H47.3116L49.1539 18.2641V15H50.2904V20.1969H48.8923L47.0009 16.8456V20.1969H45.8672Z" fill="#016FD0"/>
<path d="M19.9628 27.0304V21.8335H23.6666V22.9963H21.1102V23.8848H23.6093V24.976H21.1102V25.9112H23.6666V27.0398L19.9628 27.0304Z" fill="#016FD0"/>
<path d="M38.1218 27.0304V21.8335H41.8282V22.9963H39.2691V23.8848H41.7546V24.976H39.2691V25.9112H41.8282V27.0398L38.1218 27.0304Z" fill="#016FD0"/>
<path d="M23.811 27.0304L25.6288 24.4647L23.7811 21.8335H25.2146L26.3047 23.4608L27.3949 21.8335H28.7712L26.9479 24.4335L28.7548 27.0304H27.3322L26.2639 25.4311L25.2228 27.0304H23.811Z" fill="#016FD0"/>
<path d="M28.8992 21.8335V27.0304H30.063V25.3906H31.2594C32.2705 25.3906 33.039 24.7671 33.039 23.5824C33.039 22.5942 32.4367 21.8335 31.4038 21.8335H28.8992ZM30.063 23.0088H31.3221C31.3953 22.999 31.4694 23.0072 31.5396 23.033C31.6098 23.0588 31.6743 23.1015 31.7288 23.1582C31.7833 23.2149 31.8266 23.2844 31.8556 23.3619C31.8846 23.4394 31.8988 23.5231 31.8971 23.6074C31.8973 23.6901 31.8826 23.7719 31.8537 23.8478C31.8249 23.9236 31.7827 23.9918 31.7297 24.0481C31.6767 24.1043 31.6141 24.1474 31.5458 24.1745C31.4775 24.2017 31.405 24.2124 31.333 24.2059H30.063V23.0088Z" fill="#016FD0"/>
<path d="M33.5323 21.8335V27.0304H34.6688V25.1848H35.1484L36.5111 27.0304H37.8928L36.3966 25.1163C36.7413 25.0772 37.0607 24.8915 37.2913 24.5959C37.522 24.3002 37.6472 23.9163 37.6421 23.5201C37.6421 22.4258 36.8926 21.8335 36.056 21.8335H33.5323ZM34.6688 22.9963H35.9687C36.1037 22.9885 36.2361 23.0411 36.3378 23.1429C36.4395 23.2447 36.5027 23.3878 36.5138 23.5419C36.5047 23.6938 36.4446 23.8357 36.346 23.938C36.2475 24.0403 36.1181 24.095 35.9851 24.0906H34.666L34.6688 22.9963Z" fill="#016FD0"/>
<path d="M42.3542 27.0305V25.9113H44.6272C44.9624 25.9113 45.1095 25.7025 45.1095 25.4749C45.1095 25.2473 44.9624 25.0353 44.6272 25.0353H43.5997C42.7058 25.0353 42.2098 24.4118 42.2098 23.4765C42.2098 22.6442 42.6649 21.8398 43.9921 21.8398H46.2024L45.7255 23.0089H43.8177C43.4525 23.0089 43.3408 23.2303 43.3408 23.4391C43.3407 23.5007 43.3516 23.5616 43.3728 23.6181C43.394 23.6746 43.4251 23.7256 43.4641 23.7679C43.5032 23.8102 43.5494 23.843 43.5998 23.8642C43.6503 23.8854 43.7041 23.8946 43.7578 23.8912H44.8479C45.8427 23.8912 46.2733 24.5365 46.2733 25.3845C46.2733 26.2917 45.7936 27.0368 44.7934 27.0368L42.3542 27.0305Z" fill="#016FD0"/>
<path d="M46.5213 27.0305V25.9113H48.7942C49.1321 25.9113 49.2766 25.7025 49.2766 25.4749C49.2766 25.2473 49.1321 25.0353 48.7942 25.0353H47.7668C46.8756 25.0353 46.3768 24.4118 46.3768 23.4765C46.3768 22.6442 46.832 21.8398 48.1592 21.8398H50.3722L49.8843 23.0027H47.9766C47.6114 23.0027 47.4997 23.224 47.4997 23.4329C47.4996 23.4947 47.5105 23.5559 47.5319 23.6126C47.5533 23.6694 47.5846 23.7205 47.6239 23.7629C47.6633 23.8053 47.7098 23.8379 47.7606 23.8589C47.8114 23.8799 47.8655 23.8888 47.9194 23.8849H48.9932C49.9906 23.8849 50.4212 24.5303 50.4212 25.3782C50.4212 26.2854 49.9388 27.0305 48.9387 27.0305H46.5213Z" fill="#016FD0"/>
<path fill-rule="evenodd" clip-rule="evenodd" d="M62.2247 17.6407C62.5441 17.5215 62.878 17.4605 63.214 17.4599C63.929 17.4535 64.6242 17.7289 65.1826 18.2399C65.741 18.7509 66.1285 19.4662 66.28 20.2656L68.4167 19.7762C68.1617 18.4178 67.5055 17.2012 66.5585 16.3314C65.6114 15.4615 64.4313 14.9914 63.2167 15.0001C62.6435 15.0007 62.074 15.1059 61.5297 15.3119L62.2247 17.6407Z" fill="#FFCA05"/>
<path fill-rule="evenodd" clip-rule="evenodd" d="M59.7364 25.5218L61.2027 23.6669C60.8679 23.3397 60.5991 22.9334 60.4148 22.4759C60.2304 22.0184 60.135 21.5207 60.135 21.017C60.135 20.5133 60.2304 20.0156 60.4148 19.5581C60.5991 19.1006 60.8679 18.6943 61.2027 18.3671L59.7337 16.4966C59.1643 17.0527 58.7071 17.7434 58.3936 18.5211C58.0801 19.2988 57.9178 20.145 57.9178 21.0014C57.9178 21.8578 58.0801 22.7041 58.3936 23.4818C58.7071 24.2595 59.1643 24.9502 59.7337 25.5062" fill="#00A4DF"/>
<path fill-rule="evenodd" clip-rule="evenodd" d="M66.28 21.7681C66.129 22.5672 65.7421 23.2825 65.1841 23.7935C64.6262 24.3045 63.9314 24.5801 63.2167 24.5738C62.8798 24.5729 62.5451 24.5119 62.2247 24.393L61.5297 26.7218C62.0743 26.9261 62.6436 27.0312 63.2167 27.0336C64.4308 27.0419 65.6103 26.572 66.5572 25.7028C67.5041 24.8337 68.1607 23.6182 68.4167 22.2606L66.28 21.7681Z" fill="#EE4123"/>
<path fill-rule="evenodd" clip-rule="evenodd" d="M74.4914 22.9904L74.4315 22.9437C74.2426 23.2853 73.9654 23.5512 73.6384 23.7044C72.9843 24.0161 72.3793 23.9475 71.9433 23.5079L71.9024 23.5796L71.1584 24.8578C71.3438 25.0045 71.542 25.1288 71.7497 25.2288C72.1433 25.4218 72.5678 25.5182 72.996 25.5118C73.4241 25.5053 73.8463 25.3962 74.2353 25.1914C74.8043 24.9178 75.2885 24.4551 75.6252 23.8633L74.4914 22.9904ZM72.1722 19.8386C71.8428 19.996 71.5684 20.2738 71.3919 20.6287C71.2153 20.9835 71.1466 21.3953 71.1965 21.7995L74.1399 20.3499C73.9192 20.0101 73.5995 19.7718 73.2387 19.6781C72.8778 19.5843 72.4995 19.6413 72.1722 19.8386ZM70.2263 23.7293C70.1446 23.57 70.0709 23.4055 70.0055 23.2367C69.672 22.3726 69.6475 21.3934 69.9374 20.5089C70.0769 20.0427 70.2986 19.6143 70.5888 19.2501C70.879 18.886 71.2315 18.594 71.6244 18.3921C72.1021 18.1555 72.6227 18.0546 73.1419 18.098C73.6611 18.1414 74.1634 18.3279 74.6059 18.6415C75.2187 19.068 75.6881 19.7181 75.9386 20.4871C75.9795 20.5962 76.0149 20.7146 76.0503 20.7988L70.2263 23.7293ZM78.0862 16.5122V23.6108L79.0455 24.0597L78.5004 25.5219L77.4403 25.0137C77.2268 24.9068 77.045 24.7314 76.917 24.5087C76.7753 24.2447 76.7043 23.9391 76.7126 23.6295V16.5122H78.0862ZM80.5744 21.812C80.5731 22.0983 80.6257 22.3815 80.7287 22.6425C80.8317 22.9034 80.9826 23.1358 81.1712 23.324L80.1847 24.5897C79.8417 24.2411 79.5672 23.8133 79.3792 23.3345C79.1912 22.8557 79.0941 22.3369 79.0941 21.812C79.0941 21.2872 79.1912 20.7683 79.3792 20.2895C79.5672 19.8107 79.8417 19.3829 80.1847 19.0343L81.174 20.3C80.9867 20.4876 80.8364 20.7186 80.7331 20.9777C80.6297 21.2367 80.5756 21.5179 80.5744 21.8027V21.812ZM82.3159 23.8166C82.7202 23.816 83.112 23.6561 83.4253 23.3636C83.7385 23.0711 83.9541 22.6641 84.0356 22.2111L85.48 22.5509C85.3327 23.3866 84.9371 24.1382 84.3603 24.6781C83.7835 25.2179 83.0612 25.5128 82.3159 25.5125C81.9676 25.5119 81.6217 25.4477 81.2912 25.3223L81.7708 23.7293C81.9474 23.7907 82.1313 23.8202 82.3159 23.8166ZM82.3159 18.0928C83.0617 18.0962 83.7836 18.394 84.3596 18.9359C84.9356 19.4778 85.3304 20.2305 85.4773 21.0669L84.0301 21.4036C83.9509 20.9491 83.7366 20.54 83.4236 20.2456C83.1107 19.9513 82.7183 19.7899 82.3132 19.7887C82.1279 19.7909 81.9441 19.8256 81.7681 19.8916L81.3021 18.283C81.6334 18.1569 81.9803 18.0927 82.3295 18.0928H82.3159Z" fill="black"/>
<path d="M103.451 27.0181H93.3671V26.99C93.3765 26.9155 93.3892 26.8417 93.4053 26.7687C93.4244 26.6627 93.4543 26.4943 93.4707 26.3946C93.487 26.2948 93.5197 26.1265 93.5388 26.0174C93.5579 25.9082 93.5906 25.7337 93.6097 25.6214C93.6288 25.5092 93.6615 25.3346 93.6805 25.2317C93.6996 25.1289 93.7269 24.9574 93.746 24.8545L93.8195 24.4555C93.8386 24.3401 93.8713 24.1655 93.8877 24.0658C93.904 23.966 93.934 23.8133 93.9504 23.7229C93.9667 23.6324 93.9885 23.5171 93.9967 23.4579C94.0049 23.3986 94.0348 23.2303 94.0621 23.0806L94.1302 22.7034C94.1302 22.6473 94.1711 22.479 94.1984 22.3293C94.2256 22.1797 94.2556 22.0176 94.2638 21.9521L94.3319 21.5749C94.3592 21.4252 94.3891 21.2631 94.3973 21.2039C94.4055 21.1447 94.4327 21.0137 94.4518 20.8921C94.4709 20.7705 94.5118 20.5586 94.539 20.4089L94.6426 19.8322L94.7216 19.3832L94.7761 19.0715C94.7925 18.978 94.8225 18.8127 94.8443 18.7005C94.8661 18.5883 94.896 18.4075 94.9178 18.2983C94.9396 18.1892 94.9669 18.0147 94.986 17.9149C95.0051 17.8151 95.0323 17.6468 95.0514 17.5439L95.125 17.1386C95.1468 17.0202 95.1822 16.8269 95.204 16.7333C95.2258 16.6398 95.2558 16.5058 95.2721 16.4559C95.3011 16.3739 95.3338 16.2938 95.3703 16.2158L95.4411 16.0662L95.5038 15.9696C95.5392 15.9197 95.6019 15.8355 95.6428 15.7887C95.6909 15.7315 95.7419 15.6773 95.7954 15.6266C95.8408 15.5834 95.8881 15.5428 95.9371 15.505C95.9833 15.4673 96.0316 15.4329 96.0816 15.4022C96.1306 15.371 96.196 15.3305 96.2287 15.3149L96.3814 15.24L96.5939 15.159C96.6836 15.1279 96.7746 15.1019 96.8665 15.0811C96.9537 15.0592 97.0899 15.0343 97.1717 15.0218L97.3189 15H107.403H117.486V15.0374C117.477 15.1108 117.464 15.1837 117.448 15.2556C117.429 15.3616 117.396 15.5425 117.377 15.6578C117.358 15.7731 117.326 15.9384 117.309 16.0288L117.241 16.4029L117.168 16.8082C117.151 16.911 117.118 17.0825 117.102 17.1854L117.034 17.5626C117.015 17.6655 116.985 17.8276 116.969 17.9242C116.952 18.0209 116.922 18.1924 116.9 18.3077C116.879 18.423 116.846 18.6195 116.827 18.713C116.808 18.8065 116.778 18.9873 116.761 19.084L116.693 19.4674C116.672 19.5828 116.639 19.7636 116.62 19.8727C116.601 19.9818 116.571 20.1408 116.554 20.2343C116.538 20.3279 116.508 20.4993 116.486 20.6178C116.464 20.7363 116.434 20.9108 116.418 21.0012L116.353 21.366C116.334 21.472 116.298 21.6559 116.279 21.7775L116.211 22.1516C116.195 22.242 116.165 22.4073 116.143 22.5226C116.121 22.6379 116.091 22.8188 116.072 22.9279C116.053 23.037 116.02 23.2053 116.004 23.3051C115.987 23.4049 115.955 23.5763 115.936 23.6886C115.917 23.8008 115.881 23.9816 115.862 24.0938L115.797 24.4617C115.78 24.5552 115.75 24.7236 115.729 24.8389C115.707 24.9543 115.674 25.1351 115.655 25.2411L115.62 25.4375L115.573 25.5715C115.55 25.6448 115.524 25.7166 115.494 25.7867C115.467 25.8488 115.437 25.9092 115.404 25.9675C115.374 26.0205 115.331 26.0891 115.309 26.1202C115.265 26.1803 115.219 26.2376 115.17 26.2917L115.066 26.4102L114.968 26.4912L114.837 26.591L114.69 26.6783C114.627 26.7126 114.538 26.7593 114.494 26.778C114.45 26.7967 114.358 26.8341 114.292 26.856L114.137 26.9027L113.982 26.9401C113.916 26.9557 113.785 26.9776 113.69 26.99L113.516 27.015L103.451 27.0181ZM99.8643 24.0408H100.137V24.019C100.139 23.9973 100.139 23.9753 100.137 23.9535C100.137 23.9317 100.137 23.8476 100.156 23.7696C100.175 23.6917 100.191 23.5109 100.21 23.3706C100.23 23.2303 100.26 23.0152 100.276 22.8967C100.292 22.7782 100.311 22.6255 100.319 22.5569C100.323 22.5156 100.33 22.4749 100.341 22.4353C100.358 22.4535 100.371 22.4759 100.379 22.5008L100.409 22.5662L100.478 22.6442L100.546 22.7221L100.627 22.7595L100.712 22.8001H100.81L100.911 22.8156H101.036H101.162L101.298 22.7782L101.434 22.7377L101.508 22.6972C101.563 22.6687 101.615 22.6353 101.666 22.5974L101.753 22.532L101.832 22.4415C101.881 22.3856 101.926 22.3262 101.968 22.2638C101.99 22.2337 102.009 22.2014 102.026 22.1672C102.036 22.1443 102.048 22.1224 102.061 22.1017C102.093 22.0383 102.123 21.9727 102.148 21.9053C102.175 21.8274 102.222 21.6902 102.246 21.5936L102.295 21.4252L102.317 21.2818C102.317 21.2008 102.35 21.0698 102.358 20.9888L102.372 20.8391V20.7144V20.5897L102.344 20.465L102.32 20.3372L102.279 20.2437L102.238 20.1502L102.159 20.0535L102.077 19.9569L101.985 19.9008L101.889 19.8446L101.786 19.8166L101.682 19.7885H101.579H101.475H101.361L101.243 19.8041L101.151 19.8322L101.055 19.8602L100.974 19.9039L100.829 19.9943C100.8 20.0136 100.773 20.0355 100.747 20.0598L100.698 20.1034L100.668 20.1252L100.69 20.0036C100.69 19.9351 100.712 19.8727 100.712 19.8633V19.8446H100.265L100.227 20.1283C100.205 20.2842 100.172 20.5243 100.15 20.6614C100.129 20.7986 100.101 21.0075 100.085 21.1228C100.069 21.2382 100.036 21.4346 100.017 21.5749C99.9979 21.7152 99.9652 21.924 99.9434 22.0519C99.9216 22.1797 99.8943 22.3636 99.878 22.4634L99.8098 22.8811C99.788 23.0121 99.7553 23.2178 99.7362 23.3425C99.7172 23.4672 99.6817 23.6543 99.6627 23.7727C99.6436 23.8912 99.6218 23.9972 99.6191 24.0159V24.0471L99.8643 24.0408ZM100.993 22.426H100.892H100.824H100.758L100.69 22.3885L100.622 22.3543L100.576 22.3044L100.529 22.2514L100.502 22.1828C100.484 22.1355 100.469 22.0864 100.458 22.0363L100.442 21.9614V21.843V21.7214L100.472 21.5343C100.491 21.4283 100.521 21.2226 100.543 21.101C100.565 20.9794 100.595 20.7705 100.611 20.6646L100.644 20.4713L100.715 20.4027C100.753 20.3684 100.813 20.3185 100.848 20.2936L100.914 20.253L101.001 20.2219L101.085 20.1907H101.194H101.303L101.393 20.2125L101.483 20.2312L101.546 20.2655L101.609 20.2998L101.663 20.359L101.715 20.4214L101.745 20.4869C101.765 20.5363 101.781 20.5873 101.794 20.6396L101.813 20.73V20.995V21.26L101.78 21.4159C101.761 21.5152 101.736 21.6131 101.707 21.7089L101.666 21.8461L101.614 21.9552C101.585 22.0186 101.554 22.0801 101.519 22.1391C101.493 22.1799 101.464 22.2175 101.431 22.2514L101.344 22.3324L101.301 22.3698L101.197 22.4104L101.093 22.4509H100.99L100.993 22.426ZM103.527 22.8094H103.661L103.794 22.7938L104.067 22.7595C104.14 22.7595 104.266 22.7221 104.339 22.7003L104.489 22.6629V22.6005C104.489 22.5662 104.511 22.4634 104.527 22.3698L104.557 22.2046L104.511 22.2296C104.454 22.2578 104.396 22.2828 104.337 22.3044L104.209 22.3511L104.075 22.3823L103.941 22.4104H103.514L103.44 22.3823C103.402 22.3667 103.342 22.3418 103.309 22.3231L103.252 22.2888L103.203 22.2389L103.154 22.189L103.116 22.1142L103.08 22.0394L103.056 21.9459L103.031 21.8523V21.4907L103.053 21.3348L103.075 21.1789H103.257H103.44H104.119H104.797L104.819 21.0792C104.819 21.0231 104.846 20.9108 104.857 20.8267L104.874 20.677V20.4214L104.854 20.3247L104.833 20.2312L104.803 20.1689C104.783 20.1287 104.759 20.0911 104.732 20.0566C104.709 20.0247 104.682 19.9963 104.653 19.9725C104.619 19.9465 104.585 19.9226 104.549 19.9008L104.487 19.8633L104.38 19.8322L104.274 19.8041L104.143 19.7885H104.012H103.89H103.767L103.62 19.8228L103.475 19.854L103.383 19.8945C103.334 19.9195 103.255 19.96 103.211 19.988C103.164 20.0187 103.12 20.0531 103.078 20.0909C103.048 20.119 102.996 20.1751 102.963 20.2125C102.922 20.2598 102.885 20.3109 102.851 20.3653C102.824 20.412 102.783 20.4931 102.759 20.5461C102.734 20.5991 102.704 20.677 102.691 20.7144C102.677 20.7518 102.65 20.8329 102.633 20.889C102.617 20.9451 102.59 21.0574 102.573 21.1322C102.557 21.207 102.535 21.3379 102.524 21.4159L102.505 21.5562V21.9708L102.524 22.0612C102.524 22.1111 102.554 22.1859 102.568 22.2296C102.584 22.2774 102.602 22.3242 102.622 22.3698C102.646 22.4131 102.674 22.4538 102.704 22.4914C102.739 22.5321 102.776 22.5696 102.816 22.6037C102.857 22.6392 102.902 22.6695 102.949 22.6941L103.02 22.7315L103.121 22.7595C103.181 22.7745 103.241 22.7859 103.301 22.7938C103.347 22.7938 103.448 22.7938 103.522 22.7938L103.527 22.8094ZM103.756 20.8454C103.418 20.8454 103.143 20.8454 103.143 20.8454C103.143 20.8454 103.157 20.7924 103.173 20.7363C103.193 20.6734 103.217 20.612 103.244 20.5523L103.279 20.4681L103.361 20.3746L103.44 20.2842L103.519 20.2406C103.561 20.2179 103.603 20.1981 103.647 20.1813L103.819 20.1595H103.941L104.034 20.1751H104.129L104.198 20.2094L104.263 20.2468L104.301 20.2936C104.322 20.3178 104.341 20.3451 104.356 20.3746L104.372 20.412L104.386 20.4931V20.5741V20.7113L104.372 20.8485L103.756 20.8454ZM107.405 22.7938H107.539L107.692 22.772C107.776 22.772 107.888 22.7439 107.94 22.7315C107.991 22.719 108.079 22.6972 108.128 22.6785C108.163 22.6694 108.198 22.6558 108.231 22.6379C108.248 22.5931 108.259 22.5459 108.264 22.4977C108.277 22.426 108.294 22.3293 108.299 22.2826C108.302 22.2535 108.302 22.2243 108.299 22.1953C108.299 22.1953 108.299 22.1953 108.277 22.1953L108.147 22.2576L108.029 22.3075L107.86 22.3449L107.694 22.3823H107.553H107.408L107.329 22.3511L107.247 22.32L107.185 22.2576L107.122 22.1953L107.081 22.108L107.04 22.0207L107.021 21.9053L106.999 21.79V21.4782L107.021 21.2974L107.046 21.1166L107.07 21.02C107.086 20.9638 107.1 20.9015 107.106 20.8797C107.119 20.8292 107.136 20.7802 107.157 20.7331C107.183 20.6648 107.212 20.5982 107.245 20.5336L107.291 20.4432L107.348 20.3746L107.405 20.306L107.468 20.2624L107.531 20.2187L107.607 20.1907C107.663 20.1707 107.721 20.1561 107.779 20.147L107.871 20.1283H108.005H108.138L108.297 20.1657L108.455 20.2032L108.52 20.2281L108.588 20.2562C108.598 20.2185 108.604 20.1799 108.607 20.1408C108.607 20.0785 108.632 19.9756 108.64 19.9101C108.648 19.8703 108.653 19.8295 108.654 19.7885C108.619 19.7789 108.583 19.7727 108.547 19.7698C108.493 19.7698 108.343 19.748 108.212 19.7386L107.98 19.7231L107.814 19.7386L107.651 19.7542L107.528 19.7823L107.405 19.8135L107.329 19.8478C107.28 19.8704 107.233 19.8975 107.187 19.9288C107.154 19.9497 107.123 19.9726 107.092 19.9974C107.047 20.0385 107.004 20.0833 106.964 20.1315L106.868 20.2375L106.817 20.3247C106.776 20.3957 106.74 20.4697 106.708 20.5461L106.648 20.6833L106.604 20.8298C106.58 20.9108 106.547 21.0418 106.528 21.1228L106.498 21.2694V21.4003V21.5343V21.8835L106.511 21.9833V22.0861L106.547 22.189L106.585 22.295L106.626 22.3698L106.67 22.4447L106.735 22.5195L106.803 22.5974L106.874 22.6379L106.945 22.6816L107.037 22.7128C107.092 22.7295 107.148 22.743 107.204 22.7533C107.272 22.7576 107.34 22.7576 107.408 22.7533L107.405 22.7938ZM109.411 22.7938H109.577L109.681 22.7627L109.785 22.7315L109.85 22.6972C109.888 22.6754 109.948 22.6379 109.986 22.6099C110.032 22.571 110.075 22.5283 110.114 22.4821C110.154 22.4383 110.19 22.3914 110.223 22.3418C110.251 22.3013 110.272 22.2701 110.275 22.2732C110.274 22.3214 110.27 22.3694 110.262 22.4166C110.262 22.4914 110.245 22.5943 110.245 22.6411V22.7284H110.692V22.532V22.3324L110.725 22.0737C110.741 21.9334 110.768 21.7214 110.787 21.606C110.807 21.4907 110.834 21.2943 110.853 21.1727C110.872 21.0511 110.902 20.861 110.921 20.7487L110.954 20.5461V20.2063L110.918 20.1252L110.883 20.0442L110.85 19.988L110.804 19.9351L110.728 19.8914L110.651 19.8446L110.534 19.8166L110.42 19.7885L110.262 19.7729H110.106L109.902 19.7885C109.79 19.7885 109.629 19.8103 109.553 19.8228L109.406 19.8415H109.207L109.19 19.9226C109.19 19.9662 109.16 20.0722 109.141 20.1564C109.128 20.2075 109.118 20.2596 109.111 20.3123C109.152 20.3068 109.192 20.2964 109.231 20.2811C109.294 20.2624 109.428 20.2312 109.528 20.2125L109.711 20.1751H109.875H110.041L110.147 20.1969L110.253 20.2187L110.324 20.2593L110.395 20.2998L110.433 20.3653L110.474 20.4339V20.6116L110.452 20.73L110.433 20.8454H109.556L109.411 20.889C109.345 20.9083 109.281 20.9322 109.218 20.9607L109.155 20.9888C109.119 21.008 109.084 21.0309 109.051 21.0574L108.956 21.1228L108.882 21.207C108.844 21.2538 108.793 21.3224 108.768 21.3598C108.738 21.4172 108.711 21.4765 108.686 21.5375L108.645 21.6466L108.629 21.7682L108.61 21.8897V22.1703L108.626 22.2763L108.645 22.3823L108.678 22.454C108.7 22.4972 108.725 22.5389 108.752 22.5787L108.793 22.6317L108.866 22.6816L108.94 22.7346L109.021 22.7595C109.073 22.7765 109.124 22.79 109.177 22.8001H109.25L109.411 22.7938ZM109.564 22.401H109.466L109.403 22.3823C109.362 22.3709 109.321 22.3541 109.283 22.3324L109.226 22.2981L109.196 22.2576C109.175 22.2276 109.157 22.1952 109.141 22.161L109.114 22.1017V21.9677V21.8336L109.136 21.7526C109.152 21.6938 109.172 21.6365 109.196 21.5811L109.234 21.4907L109.308 21.4065L109.381 21.3224L109.46 21.2787L109.539 21.2351L109.637 21.207L109.733 21.1821H110.343H110.362H110.381L110.365 21.2912C110.365 21.3504 110.335 21.4595 110.319 21.5312C110.301 21.6128 110.278 21.693 110.251 21.7713C110.232 21.8274 110.215 21.8804 110.215 21.8835C110.203 21.9173 110.189 21.9497 110.172 21.9802L110.125 22.0643L110.054 22.1485C110.029 22.1787 110 22.2059 109.97 22.2296C109.95 22.2381 109.932 22.2497 109.915 22.2638L109.872 22.3013L109.771 22.3355L109.673 22.373L109.564 22.401ZM113.535 22.7938H113.657L113.766 22.772C113.824 22.7628 113.882 22.7493 113.938 22.7315C113.984 22.7158 114.029 22.6949 114.072 22.6691L114.145 22.6255L114.208 22.5631L114.27 22.5008L114.336 22.3979C114.364 22.3607 114.389 22.3199 114.409 22.2763V22.2545V22.3262C114.409 22.3636 114.409 22.426 114.393 22.4665C114.377 22.507 114.379 22.5787 114.374 22.6286V22.7221H114.854V22.5351L114.889 22.1797C114.911 21.9833 114.941 21.7245 114.957 21.5998C114.974 21.4751 114.998 21.2881 115.012 21.2101C115.025 21.1322 115.05 20.9514 115.069 20.8391L115.134 20.4058C115.156 20.2811 115.186 20.0785 115.208 19.96C115.23 19.8415 115.257 19.6482 115.273 19.5485C115.29 19.4487 115.322 19.2367 115.342 19.1307C115.361 19.0247 115.393 18.819 115.41 18.7473C115.426 18.6756 115.44 18.582 115.44 18.5758H114.916V18.6631C114.916 18.7099 114.892 18.8689 114.873 19.0154C114.854 19.1619 114.821 19.3926 114.799 19.5298C114.777 19.6669 114.761 19.8041 114.756 19.8415V19.8883H114.737C114.723 19.8883 114.663 19.8633 114.598 19.8478L114.483 19.8135L114.325 19.7979H114.167H114.031L113.897 19.8135L113.774 19.8478L113.655 19.8852L113.537 19.9475L113.385 19.988L113.298 20.0598L113.213 20.1315L113.139 20.2219C113.093 20.2801 113.049 20.3415 113.009 20.4058L112.951 20.4993L112.886 20.6552C112.851 20.7425 112.804 20.8578 112.788 20.9108C112.772 20.9638 112.739 21.0854 112.717 21.1758L112.682 21.3442L112.663 21.5593L112.643 21.7775L112.657 21.9521L112.671 22.1267L112.687 22.189C112.699 22.2358 112.713 22.2817 112.731 22.3262L112.755 22.3979L112.802 22.4727L112.851 22.5444L112.902 22.5943L112.957 22.6442L113.03 22.6878C113.079 22.7129 113.129 22.7347 113.18 22.7533C113.231 22.7677 113.282 22.7792 113.333 22.7876C113.397 22.7914 113.46 22.7914 113.524 22.7876L113.535 22.7938ZM113.742 22.3979H113.652H113.589C113.547 22.3895 113.506 22.3749 113.466 22.3543L113.407 22.3262L113.357 22.2794L113.308 22.2327L113.27 22.1516L113.232 22.0706L113.216 21.9802L113.199 21.8897V21.5468L113.219 21.3878L113.238 21.2257L113.27 21.1166C113.282 21.0736 113.292 21.0299 113.3 20.9857C113.309 20.9472 113.321 20.9097 113.336 20.8734C113.357 20.8235 113.39 20.7425 113.412 20.6957C113.438 20.6405 113.467 20.5874 113.499 20.5367C113.526 20.4962 113.576 20.4339 113.605 20.3964C113.64 20.3584 113.679 20.3249 113.72 20.2967L113.774 20.2562L113.87 20.2187L113.965 20.1813H114.369L114.483 20.2187L114.633 20.2686H114.668V20.3092C114.668 20.3279 114.649 20.4214 114.636 20.5149C114.622 20.6084 114.592 20.7799 114.573 20.9046C114.554 21.0293 114.524 21.2164 114.505 21.3161C114.486 21.4159 114.464 21.5499 114.45 21.6092C114.437 21.6684 114.418 21.7463 114.409 21.7869C114.395 21.8391 114.378 21.8901 114.358 21.9396C114.339 21.9833 114.306 22.0487 114.287 22.083C114.263 22.1203 114.236 22.1557 114.208 22.189C114.183 22.214 114.134 22.2545 114.099 22.2826L114.031 22.3355L113.935 22.3698L113.837 22.4041H113.744L113.742 22.3979ZM95.79 22.7252H96.087L96.1088 22.5756C96.1088 22.4945 96.1415 22.3355 96.1579 22.2233C96.1742 22.1111 96.2042 21.9116 96.226 21.765C96.2478 21.6185 96.2778 21.4128 96.2941 21.2974C96.3105 21.1821 96.3378 21.0012 96.3541 20.8984C96.3619 20.8328 96.3747 20.7681 96.3923 20.7051H97.9866L97.9702 20.7861C97.9702 20.8298 97.9403 20.967 97.9212 21.0979C97.9021 21.2288 97.8694 21.4283 97.8476 21.5593L97.7795 21.9708C97.7631 22.0674 97.7304 22.267 97.7086 22.4166C97.6868 22.5662 97.665 22.6972 97.665 22.7065V22.7221H98.2591L98.2727 22.6348C98.2727 22.5881 98.2918 22.5008 98.3 22.4447C98.3082 22.3885 98.3218 22.2638 98.3354 22.1734C98.349 22.083 98.3763 21.8991 98.3981 21.7682C98.4199 21.6372 98.4499 21.4128 98.469 21.2725C98.488 21.1322 98.5207 20.9233 98.5371 20.8111C98.5534 20.6988 98.5834 20.4993 98.6052 20.3933C98.627 20.2873 98.657 20.0816 98.6761 19.9475C98.6952 19.8135 98.7279 19.6358 98.7442 19.5204C98.7606 19.4051 98.7933 19.2087 98.8124 19.0871C98.8314 18.9655 98.8614 18.8065 98.8723 18.7504L98.8914 18.6475H98.3136V18.7161C98.3136 18.7504 98.2945 18.8533 98.2809 18.9406C98.2673 19.0278 98.2455 19.1868 98.2291 19.2897C98.2128 19.3926 98.1828 19.6015 98.161 19.7293C98.1392 19.8571 98.1174 20.041 98.1065 20.1377L98.0847 20.2936H97.6432H97.2017H96.831H96.4577C96.4599 20.2527 96.4645 20.2121 96.4713 20.172C96.4713 20.1065 96.5013 19.9943 96.5149 19.9226C96.5285 19.8509 96.5503 19.7044 96.5694 19.6108C96.5885 19.5173 96.6048 19.377 96.6103 19.324C96.6157 19.271 96.6321 19.1806 96.643 19.1245C96.6539 19.0684 96.6702 18.953 96.6839 18.8657C96.6975 18.7784 96.7138 18.6943 96.7166 18.6849V18.66H96.117L96.0979 18.7847C96.0979 18.8502 96.0734 18.9468 96.0679 18.9967C96.0625 19.0466 96.038 19.2055 96.0189 19.3521C95.9998 19.4986 95.9671 19.7137 95.9508 19.8322L95.8826 20.3154C95.8635 20.4619 95.8308 20.6864 95.809 20.8173C95.7872 20.9482 95.76 21.1291 95.7436 21.2288L95.6755 21.6341C95.6537 21.7588 95.6237 21.9459 95.6074 22.03C95.591 22.1142 95.5719 22.2296 95.5665 22.267C95.561 22.3044 95.542 22.4166 95.5256 22.5132C95.5092 22.6099 95.4929 22.7003 95.4929 22.7128V22.7346L95.79 22.7252ZM99.0604 22.7252H99.3329V22.7034C99.335 22.6806 99.335 22.6576 99.3329 22.6348C99.3329 22.6068 99.3493 22.4665 99.3683 22.3231C99.3874 22.1797 99.4228 21.949 99.4419 21.8056C99.461 21.6622 99.4937 21.4564 99.51 21.3442C99.5264 21.2319 99.5564 21.048 99.5754 20.9327C99.5945 20.8173 99.6245 20.6396 99.6409 20.5367C99.6572 20.4339 99.6926 20.225 99.7172 20.0972C99.7417 19.9693 99.7635 19.8415 99.7662 19.8353H99.4937H99.2212L99.1994 20.0161C99.1994 20.1159 99.1585 20.3123 99.1394 20.4557C99.1203 20.5991 99.0876 20.8142 99.0713 20.9358C99.0549 21.0574 99.0222 21.2475 99.0031 21.3754L98.9377 21.7806C98.9214 21.8835 98.8887 22.0674 98.8696 22.1859C98.8505 22.3044 98.8233 22.4603 98.8096 22.5351C98.796 22.6099 98.7824 22.6816 98.7769 22.6972V22.7284L99.0604 22.7252ZM105.198 22.7252H105.481V22.6005C105.481 22.532 105.5 22.3917 105.514 22.2888C105.528 22.1859 105.555 21.977 105.577 21.8399C105.598 21.7027 105.637 21.4533 105.661 21.3005C105.686 21.1478 105.718 20.9888 105.727 20.967C105.736 20.942 105.742 20.9158 105.746 20.889C105.757 20.8451 105.772 20.8023 105.789 20.7612C105.818 20.6923 105.851 20.6257 105.887 20.5617L105.945 20.465L106.018 20.3871L106.092 20.3092L106.184 20.2593L106.277 20.2094H106.55L106.618 20.2343L106.694 20.2562C106.694 20.2562 106.694 20.2562 106.694 20.225C106.694 20.1938 106.708 20.1128 106.724 20.0192C106.74 19.9257 106.754 19.8446 106.754 19.8384C106.725 19.8218 106.695 19.8093 106.664 19.801C106.616 19.7834 106.567 19.7698 106.517 19.7605H106.454L106.375 19.7761C106.326 19.7865 106.278 19.8011 106.231 19.8197C106.185 19.8414 106.141 19.8674 106.1 19.8976C106.056 19.9313 106.014 19.9689 105.975 20.0099C105.931 20.0624 105.89 20.1176 105.852 20.1751L105.773 20.2998L105.757 20.3279V20.2717C105.757 20.2437 105.781 20.1408 105.795 20.0504C105.808 19.96 105.822 19.8727 105.825 19.8571V19.8322H105.359V19.8665C105.359 19.8852 105.359 19.9974 105.329 20.1159C105.299 20.2343 105.285 20.4276 105.266 20.5523C105.247 20.677 105.22 20.889 105.201 21.0262C105.181 21.1634 105.149 21.3629 105.132 21.4658C105.116 21.5686 105.086 21.7526 105.064 21.871C105.042 21.9895 105.013 22.1828 104.991 22.3044C104.969 22.426 104.947 22.5631 104.936 22.6161C104.925 22.6691 104.92 22.7159 104.92 22.7252H105.198ZM111.379 22.7252H111.651V22.5413L111.681 22.3075C111.698 22.1828 111.725 21.9802 111.744 21.8617C111.763 21.7432 111.782 21.5905 111.79 21.5281C111.799 21.4658 111.823 21.3192 111.845 21.2164C111.867 21.1135 111.889 20.9919 111.899 20.9576C111.908 20.9314 111.915 20.9043 111.919 20.8765C111.933 20.8286 111.95 20.7817 111.97 20.7363L112.022 20.6116L112.087 20.5118L112.156 20.412L112.226 20.3497C112.272 20.3116 112.321 20.2773 112.371 20.2468L112.439 20.2094H112.744L112.804 20.2312L112.864 20.253V20.2094C112.871 20.1412 112.881 20.0735 112.894 20.0068L112.921 19.8478H112.889L112.796 19.8103L112.736 19.7885H112.515L112.425 19.8259L112.338 19.8602L112.27 19.907L112.202 19.9538L112.115 20.0598L112.028 20.1626L111.981 20.2437C111.968 20.2732 111.951 20.2997 111.929 20.3216C111.929 20.3216 111.943 20.225 111.962 20.1159C111.981 20.0068 111.998 19.8976 111.998 19.8821V19.8478H111.545C111.545 19.8478 111.545 19.9444 111.521 20.0473C111.496 20.1502 111.48 20.359 111.461 20.4962C111.442 20.6334 111.406 20.8672 111.387 21.0044C111.368 21.1415 111.335 21.3411 111.319 21.4439L111.254 21.8492C111.232 21.9677 111.202 22.161 111.18 22.2732C111.158 22.3854 111.134 22.5413 111.123 22.613L111.098 22.7408L111.379 22.7252ZM99.5864 19.3334H99.6599L99.7199 19.3115L99.7798 19.2897L99.8316 19.2274L99.8834 19.1681L99.9107 19.0871L99.9379 19.006V18.7691L99.9134 18.7223L99.8889 18.6756L99.8453 18.6475L99.8044 18.6163H99.6191L99.5564 18.6475L99.4964 18.6818L99.4583 18.7254L99.4228 18.7691L99.3929 18.847L99.3656 18.9219V19.0434V19.1619L99.3929 19.2211L99.4201 19.2804L99.4692 19.3084L99.5209 19.3334H99.5864Z" fill="#B3131B"/>
<path d="M42.0599 44.9754V44.1773C42.0637 44.1103 42.0547 44.0432 42.0337 43.9805C42.0127 43.9178 41.9802 43.861 41.9383 43.814C41.8964 43.7669 41.8462 43.7308 41.791 43.7079C41.7358 43.6851 41.6769 43.6761 41.6184 43.6816C41.5411 43.678 41.4642 43.697 41.395 43.7368C41.3259 43.7766 41.2668 43.836 41.2233 43.9092C41.1851 43.8359 41.1301 43.776 41.0643 43.7359C40.9985 43.6958 40.9244 43.677 40.8499 43.6816C40.7864 43.6787 40.7233 43.6943 40.6665 43.727C40.6098 43.7598 40.5612 43.8085 40.5256 43.8687V43.7097H40.283V44.9848H40.5256V44.2709C40.5256 44.0433 40.6291 43.9373 40.7981 43.9373C40.9671 43.9373 41.0407 44.0558 41.0407 44.2709V44.9754H41.2859V44.2709C41.2805 44.2275 41.2837 44.1833 41.2952 44.1415C41.3067 44.0997 41.3263 44.0614 41.3524 44.0294C41.3785 43.9974 41.4106 43.9725 41.4463 43.9566C41.482 43.9406 41.5203 43.9341 41.5585 43.9373C41.722 43.9373 41.8038 44.0558 41.8038 44.2709V44.9754H42.0599ZM45.6737 43.7004H45.2786V43.3138H45.0333V43.7004H44.8125V43.9529H45.0333V44.5358C45.0333 44.8289 45.1368 45.0004 45.4176 45.0004C45.5223 44.9974 45.625 44.9665 45.7173 44.91L45.6492 44.6699C45.5856 44.7127 45.5132 44.7353 45.4394 44.7354C45.3222 44.7354 45.2758 44.6543 45.2758 44.5234V43.9529H45.671V43.7004H45.6737ZM47.7395 43.6723C47.6815 43.6712 47.6242 43.6876 47.5735 43.7199C47.5228 43.7522 47.4804 43.7992 47.4507 43.8562V43.6972H47.2054V44.9723H47.4507V44.2553C47.4507 44.0433 47.5297 43.9217 47.6823 43.9217C47.7339 43.9252 47.785 43.9346 47.8349 43.9498L47.9058 43.6816C47.8505 43.6771 47.7949 43.6771 47.7395 43.6816V43.6723ZM44.6163 43.8032C44.4782 43.7129 44.32 43.6707 44.1612 43.6816C43.8886 43.6816 43.6979 43.8406 43.6979 44.0932C43.6979 44.3457 43.8369 44.4267 44.0821 44.4641H44.1966C44.3247 44.4891 44.3956 44.5296 44.3956 44.5951C44.3956 44.6606 44.3002 44.7541 44.1394 44.7541C44.0061 44.7551 43.8758 44.7094 43.766 44.6231L43.6515 44.8351C43.7915 44.9428 43.9571 44.9983 44.1257 44.9941C44.4528 44.9941 44.6381 44.8195 44.6381 44.5826C44.6381 44.3457 44.4882 44.2366 44.2566 44.196H44.1394C44.0358 44.196 43.9541 44.1555 43.9541 44.0745C43.9541 43.9934 44.0358 43.9311 44.1639 43.9311C44.2855 43.9369 44.4046 43.9731 44.5127 44.037L44.6163 43.8095V43.8032ZM51.0972 43.6816C51.0388 43.6809 50.9813 43.6974 50.9302 43.7297C50.8791 43.7619 50.8361 43.8087 50.8056 43.8656V43.7066H50.563V44.9817H50.8056V44.2646C50.8056 44.0526 50.8873 43.9311 51.0399 43.9311C51.0906 43.9343 51.1409 43.9437 51.1898 43.9591L51.2607 43.6941C51.2063 43.6879 51.1515 43.6879 51.0972 43.6941V43.6816ZM47.9767 44.3363C47.9712 44.4262 47.9829 44.5164 48.0109 44.6006C48.0388 44.6848 48.0824 44.7611 48.1386 44.8242C48.1948 44.8873 48.2623 44.9357 48.3364 44.9662C48.4106 44.9966 48.4896 45.0082 48.5681 45.0004C48.7106 45.009 48.8511 44.958 48.9632 44.857L48.8488 44.6294C48.7662 44.7057 48.6633 44.7475 48.5571 44.7478C48.5105 44.7494 48.4641 44.7396 48.4211 44.7191C48.378 44.6986 48.3392 44.6679 48.3072 44.6291C48.2753 44.5902 48.2509 44.544 48.2358 44.4935C48.2206 44.443 48.2149 44.3895 48.2192 44.3363C48.2166 44.2836 48.2234 44.2308 48.2392 44.1812C48.255 44.1316 48.2794 44.0862 48.311 44.0477C48.3426 44.0092 48.3808 43.9785 48.4231 43.9573C48.4654 43.9362 48.511 43.9252 48.5571 43.9248C48.663 43.9271 48.7654 43.9686 48.8488 44.0433L48.9632 43.8188C48.853 43.7209 48.7155 43.6722 48.5762 43.6816C48.4979 43.6725 48.4187 43.6829 48.3441 43.7121C48.2696 43.7413 48.2015 43.7887 48.1445 43.8509C48.0875 43.9131 48.043 43.9888 48.014 44.0726C47.9851 44.1564 47.9723 44.2463 47.9767 44.3363ZM50.2305 44.3363V43.7128H49.9852V43.8718C49.9444 43.811 49.8914 43.7623 49.8307 43.7298C49.77 43.6973 49.7034 43.6818 49.6364 43.6848C49.4824 43.6848 49.3348 43.7547 49.2259 43.8793C49.117 44.0038 49.0559 44.1727 49.0559 44.3488C49.0559 44.5249 49.117 44.6938 49.2259 44.8183C49.3348 44.9429 49.4824 45.0128 49.6364 45.0128C49.7034 45.0189 49.7707 45.0052 49.8318 44.973C49.8929 44.9408 49.9457 44.8912 49.9852 44.8289V44.9879H50.2305V44.3363ZM49.3339 44.3363C49.3339 44.2338 49.3695 44.1355 49.4329 44.063C49.4962 43.9905 49.5822 43.9498 49.6718 43.9498C49.7614 43.9498 49.8474 43.9905 49.9108 44.063C49.9742 44.1355 50.0098 44.2338 50.0098 44.3363C50.0098 44.4389 49.9742 44.5372 49.9108 44.6097C49.8474 44.6822 49.7614 44.7229 49.6718 44.7229C49.5822 44.7229 49.4962 44.6822 49.4329 44.6097C49.3695 44.5372 49.3339 44.4389 49.3339 44.3363ZM46.4287 43.6816C46.2747 43.6816 46.1271 43.7516 46.0182 43.8761C45.9093 44.0007 45.8482 44.1696 45.8482 44.3457C45.8482 44.5218 45.9093 44.6907 46.0182 44.8152C46.1271 44.9398 46.2747 45.0097 46.4287 45.0097C46.5935 45.0136 46.7543 44.9519 46.8838 44.8351L46.7775 44.6169C46.6849 44.7006 46.5711 44.7476 46.4532 44.751C46.3727 44.7582 46.2929 44.7299 46.23 44.6719C46.1672 44.614 46.1261 44.5307 46.1152 44.4392H46.9328V44.3332C46.9409 44.2517 46.9338 44.1692 46.9122 44.091C46.8906 44.0128 46.8549 43.9407 46.8073 43.8792C46.7598 43.8178 46.7016 43.7685 46.6363 43.7345C46.5711 43.7004 46.5004 43.6824 46.4287 43.6816ZM46.4287 43.9217C46.5009 43.9217 46.5703 43.9545 46.6214 44.013C46.6725 44.0715 46.7012 44.1508 46.7012 44.2334H46.1207C46.1256 44.1466 46.16 44.0654 46.2165 44.0072C46.273 43.9489 46.3472 43.9183 46.4232 43.9217H46.4287ZM52.4816 44.3457V43.1953H52.2364V43.8593C52.1953 43.7988 52.1423 43.7502 52.0817 43.7177C52.021 43.6852 51.9545 43.6696 51.8875 43.6723C51.7336 43.6723 51.5859 43.7423 51.477 43.8668C51.3682 43.9913 51.307 44.1602 51.307 44.3363C51.307 44.5124 51.3682 44.6813 51.477 44.8059C51.5859 44.9304 51.7336 45.0004 51.8875 45.0004C51.9546 45.0065 52.0219 44.9928 52.083 44.9606C52.144 44.9283 52.1969 44.8787 52.2364 44.8164V44.9754H52.4816V44.3363V44.3457ZM51.585 44.3457C51.585 44.2949 51.5937 44.2446 51.6107 44.1977C51.6277 44.1508 51.6526 44.1082 51.684 44.0723C51.7154 44.0364 51.7526 44.008 51.7936 43.9885C51.8346 43.9691 51.8786 43.9591 51.9229 43.9591C51.9673 43.9591 52.0113 43.9691 52.0523 43.9885C52.0933 44.008 52.1305 44.0364 52.1619 44.0723C52.1933 44.1082 52.2182 44.1508 52.2352 44.1977C52.2521 44.2446 52.2609 44.2949 52.2609 44.3457C52.2609 44.3964 52.2521 44.4467 52.2352 44.4936C52.2182 44.5405 52.1933 44.5831 52.1619 44.619C52.1305 44.6549 52.0933 44.6834 52.0523 44.7028C52.0113 44.7223 51.9673 44.7323 51.9229 44.7323C51.8786 44.7323 51.8346 44.7223 51.7936 44.7028C51.7526 44.6834 51.7154 44.6549 51.684 44.619C51.6526 44.5831 51.6277 44.5405 51.6107 44.4936C51.5937 44.4467 51.585 44.3964 51.585 44.3457ZM43.4308 44.3457V43.7222H43.1855V43.8812C43.1445 43.8206 43.0915 43.772 43.0308 43.7395C42.9702 43.707 42.9036 43.6914 42.8367 43.6941C42.6827 43.6941 42.5351 43.7641 42.4262 43.8886C42.3173 44.0131 42.2562 44.182 42.2562 44.3582C42.2562 44.5343 42.3173 44.7032 42.4262 44.8277C42.5351 44.9522 42.6827 45.0222 42.8367 45.0222C42.9037 45.0283 42.971 45.0146 43.0321 44.9824C43.0932 44.9502 43.146 44.9005 43.1855 44.8383V44.9972H43.4308V44.3363V44.3457ZM42.5232 44.3457C42.5232 44.2432 42.5589 44.1448 42.6222 44.0723C42.6856 43.9998 42.7716 43.9591 42.8612 43.9591C42.9508 43.9591 43.0368 43.9998 43.1002 44.0723C43.1635 44.1448 43.1991 44.2432 43.1991 44.3457C43.1991 44.4482 43.1635 44.5465 43.1002 44.619C43.0368 44.6915 42.9508 44.7323 42.8612 44.7323C42.7716 44.7323 42.6856 44.6915 42.6222 44.619C42.5589 44.5465 42.5232 44.4482 42.5232 44.3457Z" fill="black"/>
<path d="M48.1947 34.0112H44.5345V41.5338H48.1947V34.0112Z" fill="#FF5A00"/>
<path d="M44.7771 37.7589C44.7801 37.0387 44.9247 36.3285 45.2002 35.6809C45.4757 35.0333 45.8751 34.4649 46.3687 34.0179C45.7517 33.4621 45.0105 33.1163 44.2298 33.0198C43.449 32.9234 42.6603 33.0803 41.9539 33.4725C41.2474 33.8648 40.6518 34.4765 40.235 35.2379C39.8182 35.9992 39.5972 36.8793 39.5972 37.7776C39.5972 38.6759 39.8182 39.556 40.235 40.3173C40.6518 41.0787 41.2474 41.6904 41.9539 42.0827C42.6603 42.4749 43.449 42.6318 44.2298 42.5354C45.0105 42.4389 45.7517 42.0931 46.3687 41.5373C45.8694 41.0877 45.4664 40.5136 45.1906 39.8588C44.9148 39.204 44.7733 38.4858 44.7771 37.7589Z" fill="#EB001B"/>
<path d="M53.1329 37.7586C53.1361 38.6575 52.9175 39.5392 52.5023 40.3024C52.0871 41.0656 51.4922 41.6794 50.7858 42.0734C50.0795 42.4673 49.2903 42.6253 48.509 42.5293C47.7276 42.4334 46.9858 42.0873 46.3687 41.5308C46.8649 41.0823 47.266 40.511 47.5417 39.8598C47.8174 39.2087 47.9606 38.4946 47.9606 37.7711C47.9606 37.0475 47.8174 36.3334 47.5417 35.6823C47.266 35.0311 46.8649 34.4599 46.3687 34.0113C46.9847 33.4574 47.7243 33.1127 48.5033 33.0164C49.2823 32.9202 50.0693 33.0763 50.7745 33.4669C51.4797 33.8576 52.0747 34.4671 52.4917 35.2259C52.9087 35.9847 53.1309 36.8623 53.1329 37.7586Z" fill="#F79E1B"/>
<path d="M81.5882 32.9885C79.288 32.9885 77.2277 34.3509 77.2277 36.873C77.2277 39.766 80.8769 39.9656 80.8769 41.4183C80.8769 42.0418 80.2637 42.5749 79.2172 42.5749C78.3115 42.5678 77.4213 42.3055 76.6254 41.8111L76.1485 44.355C77.0962 44.7822 78.1059 45.0011 79.1245 45.0004C81.6427 45.0004 83.6213 43.5694 83.6213 41.0068C83.6213 37.9485 79.9585 37.7552 79.9585 36.4085C79.9585 35.9284 80.4627 35.4046 81.5065 35.4046C82.2449 35.4159 82.9729 35.605 83.6431 35.9595L84.1092 33.5029C83.3038 33.1552 82.4491 32.9808 81.5882 32.9885ZM60.5323 33.1725L60.475 33.5434C61.1041 33.6886 61.7206 33.8972 62.3174 34.167C63.4402 34.6283 63.5192 34.8996 63.7073 35.7257L65.7676 44.8133H68.5311L72.7772 33.1725H70.0301L67.3047 41.0848L66.1819 34.3789C66.1438 34.0338 65.9933 33.7178 65.7603 33.4941C65.5274 33.2705 65.2293 33.1556 64.9255 33.1725H60.5323ZM73.8864 33.1725L71.7252 44.8102H74.3525L76.5082 33.1725H73.8864ZM88.546 33.1725C87.9137 33.1725 87.5758 33.5622 87.3305 34.2387L83.4878 44.8102H86.2431L86.7882 43.0488H90.1458L90.4701 44.8102H92.9011L90.7645 33.1725H88.546ZM88.9058 36.318L89.7234 40.6826H87.5431L88.9058 36.318Z" fill="#1434CB"/>
</g>
<defs>
<clipPath id="clip0_2025_508">
<rect width="102.5" height="30" fill="white" transform="translate(15 15)"/>
</clipPath>
</defs>
</svg>
